<?xml version="1.0" encoding="utf-8"?>
<svg id="master-artboard" viewBox="0 0 1400 980" version="1.1" xmlns="http://www.w3.org/2000/svg" x="0px" y="0px" style="enable-background:new 0 0 336 235.2;" width="1400px" height="980px"><rect id="ee-background" x="0" y="0" width="1400" height="980" style="fill: white; fill-opacity: 0; pointer-events: none;"/>














<g transform="matrix(-0.32785421609878546, 0, 0, 0.32785421609878546, 905.6630350784542, 392.50646548285715)"><g transform="matrix(1, 0, 0, 1, -66.18340301513672, -582.4139404296875)"><g transform="matrix(1, 0, 0, 1, 0, 0)">
	
	<path fill="#173852" d="M587.2,909c10.1,0,18.3,8.2,18.3,18.3c0,10.1-8.2,18.3-18.3,18.3c-10.1,0-18.3-8.2-18.3-18.3&#10;&#9;&#9;C568.9,917.2,577.1,909,587.2,909L587.2,909z" style="stroke: rgb(0, 0, 0); paint-order: stroke; stroke-width: 2; fill-opacity: 1; fill: rgb(0, 0, 0);"/>
	<path fill="#173852" d="M806.4,909c10.1,0,18.3,8.2,18.3,18.3c0,10.1-8.2,18.3-18.3,18.3c-10.1,0-18.3-8.2-18.3-18.3&#10;&#9;&#9;C788.2,917.2,796.3,909,806.4,909L806.4,909z" style="stroke: rgb(0, 0, 0); paint-order: stroke; stroke-width: 2; fill-opacity: 1; fill: rgb(0, 0, 0);"/>
	<path fill="#C8CFE2" d="M587.2,933.4L587.2,933.4c-3.5,0-6.6-2.5-7.3-6L575,903h24.4l-4.9,24.5&#10;&#9;&#9;C593.8,930.9,590.8,933.4,587.2,933.4L587.2,933.4z" style="stroke: rgb(0, 0, 0); paint-order: stroke; stroke-width: 2; fill-opacity: 1; fill: rgb(128, 128, 128);"/>
	<path fill="#C8CFE2" d="M806.4,933.4L806.4,933.4c-3.5,0-6.6-2.5-7.3-6l-4.9-24.5h24.4l-4.9,24.5C813,930.9,810,933.4,806.4,933.4&#10;&#9;&#9;L806.4,933.4z" style="stroke: rgb(0, 0, 0); paint-order: stroke; stroke-width: 2; fill-opacity: 1; fill: rgb(128, 128, 128);"/>
	<path fill="#C97F20" d="M 843.7 677.7 L 546.2 641.3000000000001 L 540.4000000000001 622.0000000000001 C 538.4000000000001 615.5000000000001 533.1000000000001 610.7000000000002 526.5000000000001 609.4000000000001 L 503.2000000000001 604.7 C 499.9000000000001 604 496.7000000000001 606.2 496.0000000000001 609.5 C 495.3000000000001 612.8 497.5000000000001 616 500.8000000000001 616.7 L 524.1000000000001 621.4000000000001 C 526.3000000000002 621.8000000000001 528.1000000000001 623.5000000000001 528.7000000000002 625.6000000000001 L 586.7000000000002 817.1000000000001 L 555 876 C 551.9 881.7 552.1 888.5 555.4 894 C 558.6999999999999 899.6 564.6 902.9 571.1 902.9 L 824.7 902.9 C 828.1 902.9 830.8000000000001 900.1999999999999 830.8000000000001 896.8 C 830.8000000000001 893.4 828.1 890.6999999999999 824.7 890.6999999999999 L 571.1 890.6999999999999 C 568 890.6999999999999 566.4 888.5999999999999 565.9 887.6999999999999 C 565.4 886.8 564.3 884.4 565.8 881.6999999999999 L 597.1999999999999 823.4 L 826.1999999999999 806.1999999999999 C 835.6999999999999 805.4999999999999 843.0999999999999 797.4999999999999 843.0999999999999 787.9999999999999 L 843.0999999999999 689.6999999999999 C 843.0999999999999 689.6999999999999 843.0999999999999 689.6999999999999 843.0999999999999 689.6999999999999 C 846.0999999999999 689.6999999999999 848.8 687.4 849.0999999999999 684.3 C 849.4 681.1 847 678.1 843.7 677.7 Z M 643.3 732.5 L 614.8 732.5 L 599.2 660 L 634.7 664.3 L 643.3 732.5 Z M 550.1 654 L 586.5 658.5 L 602.5 732.5 L 574 732.5 L 550.1 654 Z M 597.7 811.3 L 577.5 744.6999999999999 L 605 744.6999999999999 L 619 809.6999999999999 L 597.7 811.3 Z M 631.3 808.7 L 617.5 744.6 L 644.9 744.6 L 652.8 807.1 L 631.3 808.7 Z M 647.2 665.9 L 678.7 669.8 L 681.3000000000001 732.5 L 655.6 732.5 L 647.2 665.9 Z M 665 806.2 L 657.2 744.6 L 681.8000000000001 744.6 L 684.3000000000001 804.7 L 665 806.2 Z M 718.1 802.2 L 696.4 803.8000000000001 L 693.9 744.6 L 718 744.6 L 718 802.2 L 718.1 802.2 Z M 693.5 732.5 L 691 671.3 L 718.2 674.5999999999999 L 718.2 732.4999999999999 L 693.5 732.4999999999999 L 693.5 732.5 Z M 756.3 799.4 L 730.3 801.4 L 730.3 744.6999999999999 L 756.3 744.6999999999999 L 756.3 799.4 Z M 730.3 732.5 L 730.3 676.1 L 756.3 679.3000000000001 L 756.3 732.5000000000001 L 730.3 732.5000000000001 L 730.3 732.5 Z M 794.2 796.5 L 768.4000000000001 798.4 L 768.4000000000001 744.6 L 794.2 744.6 L 794.2 796.5 Z M 768.5 732.5 L 768.5 680.8 L 794.3 684 L 794.3 732.5 L 768.5 732.5 Z M 830.8 788.1 C 830.8 791.3000000000001 828.3 793.9 825.1999999999999 794.2 L 806.4999999999999 795.6 L 806.4999999999999 744.6 L 830.8999999999999 744.6 L 830.8999999999999 788.1 L 830.8 788.1 Z M 806.4 732.5 L 806.4 685.4 L 830.8 688.4 L 830.8 732.5 L 806.4 732.5 Z" style="stroke: rgb(0, 0, 0); paint-order: stroke; stroke-width: 2; fill-opacity: 1; fill: rgb(74, 255, 101);"/>
<path style="fill: rgb(74, 255, 101); fill-opacity: 0.35; stroke: rgb(0, 0, 0); stroke-opacity: 1; stroke-width: 2; paint-order: fill;" d="M 469.7522277832031 820.0363159179688"/><path style="fill: rgb(74, 255, 101); fill-opacity: 0.35; stroke: rgb(0, 0, 0); stroke-opacity: 1; stroke-width: 2; paint-order: fill;" d="M 472.3521423339844 852.5353393554688"/><path style="fill: rgb(74, 255, 101); fill-opacity: 1; stroke: rgb(0, 0, 0); stroke-opacity: 1; stroke-width: 2; paint-order: fill;" d="M 671.21875 578.3355102539062"/><path style="fill: rgb(74, 255, 101); fill-opacity: 1; stroke: rgb(0, 0, 0); stroke-opacity: 1; stroke-width: 2; paint-order: fill;" d="M 490.3708801269531 741.7412109375"/><path style="fill: rgb(128, 128, 128); fill-opacity: 1; stroke: rgb(0, 0, 0); stroke-opacity: 1; stroke-width: 2; paint-order: fill;" d="M 649.2780151367188 939.0781860351562"/><path style="fill: rgb(128, 128, 128); fill-opacity: 1; stroke: rgb(0, 0, 0); stroke-opacity: 1; stroke-width: 2; paint-order: fill;" d="M 583.3250732421875 913.1179809570312"/><path style="fill: rgb(128, 128, 128); fill-opacity: 1; stroke: rgb(0, 0, 0); stroke-opacity: 1; stroke-width: 2; paint-order: fill;" d="M 1061.13330078125 800.156005859375"/><path style="fill: rgb(128, 128, 128); fill-opacity: 1; stroke: rgb(0, 0, 0); stroke-opacity: 1; stroke-width: 2; paint-order: fill;" d="M 816.9669799804688 936.9733276367188 L 816.9669799804688 936.9733276367188"/><path style="fill: rgb(0, 0, 0); fill-opacity: 1; stroke: rgb(0, 0, 0); stroke-opacity: 1; stroke-width: 2; paint-order: fill;" d="M 649.9796752929688 955.2156372070312"/></g></g></g><path style="fill: rgb(51, 51, 51); fill-opacity: 1; stroke: rgb(0, 0, 0); stroke-opacity: 1; stroke-width: 0; paint-order: fill;" d="M 928.2691040039062 357.1364440917969 L 922.1328125 353.9693298339844" transform="matrix(1, 0, 0, 1, -148.7825214971669, 58.20798735633127)"/><path style="fill: rgb(51, 51, 51); fill-opacity: 1; stroke: rgb(0, 0, 0); stroke-opacity: 1; stroke-width: 0; paint-order: fill;" d="M 913.6112060546875 352.885986328125 L 909.04833984375 340.3804016113281" transform="matrix(1, 0, 0, 1, -148.78252156217093, 59.405086088325874)"/><path class="st4" d="M 305.4 338.1 C 306.49593502236974 339.70564197560736 309.5692258261776 341.9876807485994 311.53815917968745 343.4532104492188 C 315.17017672173347 346.15666310470334 316.8421813964843 348.7934448242188 317.1421813964843 349.39344482421876 C 317.5421813964843 349.89344482421876 318.1889282226562 349.25244140625 317.0889282226562 349.85244140625 C 316.7354736328125 350.04522705078125 316.2742614746094 349.4380187988281 315.7719421386719 349.2149658203125 C 314.7109069824219 348.74383544921875 313.53228759765625 348.1763610839844 313.26080322265625 347.7691345214844 C 312.8608154296875 347.16913452148435 310.0356628417968 346.2215515136719 309.3356628417968 345.6215515136719 C 308.93566284179684 345.32155151367186 306.99999999999994 344.5 305.8999999999999 343.7 C 305.8 342.2 305.6 340.2 305.4 338.1 L 305.4 338.1 Z" style="fill-rule: evenodd; clip-rule: evenodd; fill: rgb(51, 51, 51); opacity: 1; fill-opacity: 1;" transform="matrix(-2.5345778465270996, -0.4108977615833283, -0.4108977615833283, 2.5345778465270996, 1715.5163065628294, -359.933018159721)"/><path class="st4" d="M 288.4258666992188 334.7819396972656 C 288.32586669921875 335.4819396972656 288.1599304199219 337.019970703125 288.0599304199219 338.719970703125 C 287.99847412109375 339.5803527832031 288.00390625 341.0750732421875 287.9627990722656 342.14923095703125 C 287.8701477050781 344.57080078125 288.277099609375 346.91510009765625 288 347.3999938964844 C 287.6 348.09999999999997 286.8 347.59999999999997 286.9 349.29999999999995 C 287 350.99999999999994 287.4 351.49999999999994 286.2 351.19999999999993 C 284.9 350.99999999999994 285.2 351.49999999999994 285.3 351.5999999999999 C 285.40000000000003 351.69999999999993 285.90000000000003 352.4999999999999 287.8 352.2999999999999 C 289.7 352.0999999999999 289.6 351.0999999999999 289.6 349.5999999999999 C 289.6 348.0999999999999 289.70000000000005 347.69999999999993 289.90000000000003 347.0999999999999 C 290.20000000000005 346.5999999999999 290.93986816406255 342.1799743652343 291.23986816406256 340.7799743652343 C 291.43986816406255 339.7799743652343 292.30000000000007 337.3999999999999 292.40000000000003 336.0999999999999 C 290.9 336 289.7 335.7 289.1 335.2 L 288.4258666992188 334.7819396972656 Z" style="fill-rule: evenodd; clip-rule: evenodd; fill: rgb(51, 51, 51); opacity: 1; fill-opacity: 1;" transform="matrix(-0.5855012536048889, -1.8465321063995361, -1.8465321063995361, 0.5855012536048889, 1575.777537031579, 726.0554156781695)"/><path style="fill: rgb(51, 51, 51); fill-opacity: 1; stroke: rgb(0, 0, 0); stroke-opacity: 1; stroke-width: 0; paint-order: fill;" d="M 914.91064453125 334.9693908691406 L 918.497314453125 333.0816650390625" transform="matrix(1, 0, 0, 1, -148.78252156217093, 59.405086088325874)"/><path style="fill: rgb(51, 51, 51); fill-opacity: 1; stroke: rgb(0, 0, 0); stroke-opacity: 1; stroke-width: 0; paint-order: fill;" d="M 919.9359741210938 337.9289245605469 L 919.9359741210938 337.9289245605469 L 924.269287109375 335.9289245605469" transform="matrix(1, 0, 0, 1, -148.78252156217093, 59.405086088325874)"/><g transform="matrix(1.9948828220367432, 0, 0, 1.9948828220367432, 228.0822550491572, -248.01898617729913)"><g transform="matrix(-1, 0, 0, 1, 588.476749350602, -9.816694294425588)"><path class="st2" d="M 295.9 316.3 C 299.5 316.5 301.7 317.7 303 319.3 L 302.2 321.1 C 302.2 321.1 304.3 325 304.59999999999997 328.6 C 304.9 332.3 305.7 343.5 305.99999999999994 345.1 C 306.29999999999995 346.70000000000005 305.79999999999995 350.20000000000005 305.79999999999995 350.20000000000005 C 305.79999999999995 350.20000000000005 301.59999999999997 347.90000000000003 300.09999999999997 349.20000000000005 C 298.59999999999997 350.50000000000006 295.99999999999994 352.00000000000006 294.2 352.20000000000005 C 292.5 352.30000000000007 291.8 351.6 291.8 351.6 C 291.8 351.6 291.5 345.90000000000003 292.2 343.20000000000005 C 292.9 340.50000000000006 292.8 337.30000000000007 292.5 333.20000000000005 C 292.2 329.1 292.1 325.00000000000006 293.3 322.1 C 294.5 319.20000000000005 295.6 318.8 295.6 318.8 C 295.6 318.8 295.6 318.2 295.9 316.3 L 295.9 316.3 Z" style="fill-rule: evenodd; clip-rule: evenodd; fill: rgb(51, 51, 51); opacity: 1; fill-opacity: 1;" transform="matrix(1, 0, 0, 1, -1.5154912471771258, -0.0000014963380010613037)"/><path class="st3" d="M 288.6 334.7 C 291.1 328.2 292.90000000000003 324.9 295.70000000000005 322.9 C 297.70000000000005 322.2 299.20000000000005 321.79999999999995 300.70000000000005 323 C 302.00000000000006 324 301.6 325.6 301.1 326.5 C 299 331.1 297.5 331.3 293.8 336.3 C 291.3 336.1 289.2 335.7 288.6 334.7 L 288.6 334.7 Z" style="fill-rule: evenodd; clip-rule: evenodd; fill: rgb(51, 51, 51); opacity: 1; fill-opacity: 1;" transform="matrix(1, 0, 0, 1, -1.5154912471771258, -0.0000014963380010613037)"/><path class="st4" d="M 289.1 335.2 C 289 335.9 288.70000000000005 337.3 288.6 339 C 288.40000000000003 341.8 288.40000000000003 346.7 288 347.4 C 287.6 348.09999999999997 286.8 347.59999999999997 286.9 349.29999999999995 C 287 350.99999999999994 287.4 351.49999999999994 286.2 351.19999999999993 C 284.9 350.99999999999994 285.2 351.49999999999994 285.3 351.5999999999999 C 285.40000000000003 351.69999999999993 285.90000000000003 352.4999999999999 287.8 352.2999999999999 C 289.7 352.0999999999999 289.6 351.0999999999999 289.6 349.5999999999999 C 289.6 348.0999999999999 289.70000000000005 347.69999999999993 289.90000000000003 347.0999999999999 C 290.20000000000005 346.5999999999999 291.70000000000005 342.2999999999999 292.00000000000006 340.8999999999999 C 292.20000000000005 339.8999999999999 292.30000000000007 337.3999999999999 292.40000000000003 336.0999999999999 C 290.9 336 289.7 335.7 289.1 335.2 L 289.1 335.2 Z" style="fill-rule: evenodd; clip-rule: evenodd; fill: rgb(51, 51, 51); opacity: 1; fill-opacity: 1;" transform="matrix(1, 0, 0, 1, -1.5154912471771258, -0.0000014963380010613037)"/><path class="st4" d="M 296.7 316.8 C 296.7 316.40000000000003 297.2 315.1 296.9 314.3 C 296.59999999999997 313.5 295.29999999999995 313.2 295.2 312.40000000000003 C 295.09999999999997 311.6 295.3 307.70000000000005 295.7 307.00000000000006 C 296.09999999999997 306.30000000000007 299.9 304.1000000000001 301.09999999999997 304.30000000000007 C 302.29999999999995 304.50000000000006 306.2 306.50000000000006 306.2 307.00000000000006 C 306.2 307.40000000000003 305.3 307.80000000000007 305.3 307.80000000000007 C 305.3 307.80000000000007 305.90000000000003 309.20000000000005 305.90000000000003 310.1000000000001 C 305.90000000000003 311.00000000000006 305.40000000000003 311.4000000000001 305.6 311.9000000000001 C 305.8 312.4000000000001 306.8 313.6000000000001 306.40000000000003 313.9000000000001 C 306.1 314.2000000000001 305.3 314.2000000000001 305.20000000000005 315.1000000000001 C 305.1 316.1000000000001 305.30000000000007 317.9000000000001 303.90000000000003 317.9000000000001 C 302.5 317.9000000000001 301.70000000000005 319.1000000000001 301.70000000000005 319.1000000000001 C 301.70000000000005 319.1000000000001 296.7 317.5 296.7 316.8 L 296.7 316.8 Z" style="fill-rule: evenodd; clip-rule: evenodd; fill: rgb(51, 51, 51); opacity: 1; fill-opacity: 1;" transform="matrix(1, 0, 0, 1, -1.5154912471771258, -0.0000014963380010613037)"/><path class="st5" d="M 296.9 314.2 C 296.59999999999997 313.4 295.4 313.09999999999997 295.29999999999995 312.3 C 295.19999999999993 311.5 295.4 307.6 295.79999999999995 306.90000000000003 C 296.19999999999993 306.20000000000005 299.99999999999994 304.00000000000006 301.19999999999993 304.20000000000005 C 302.3999999999999 304.40000000000003 306.29999999999995 306.40000000000003 306.29999999999995 306.90000000000003 C 306.29999999999995 307.3 305.4 307.70000000000005 305.4 307.70000000000005 C 305 307.40000000000003 303.7 307.40000000000003 303.59999999999997 308.30000000000007 C 303.4 309.30000000000007 303.4 310.00000000000006 302.7 310.1000000000001 C 302 310.2000000000001 302.09999999999997 311.80000000000007 301.7 312.2000000000001 C 301.3 312.6000000000001 300.8 313.1000000000001 300.7 311.9000000000001 C 300.59999999999997 310.7000000000001 299.09999999999997 310.6000000000001 298.3 310.7000000000001 C 297.5 310.8000000000001 298 312.3000000000001 297.8 313.3000000000001 C 297.5 313.9 297.2 314.1 296.9 314.2 L 296.9 314.2 Z" style="fill-rule: evenodd; clip-rule: evenodd; fill: rgb(51, 51, 51); opacity: 1; fill-opacity: 1;" transform="matrix(1, 0, 0, 1, -1.5154912471771258, -0.0000014963380010613037)"/><path class="st6" d="M 293.8 352.3 C 293.6 354.40000000000003 293.2 358.8 292.8 361.1 C 292.40000000000003 364.20000000000005 290.6 369.1 288.3 372.6 C 286 376.1 284.2 379.90000000000003 284.1 380.6 C 284.1 381.3 284.1 381.8 284.1 381.8 C 284.1 381.8 283.6 382.3 283.3 383.1 C 283 383.90000000000003 282.6 384.40000000000003 282.7 384.90000000000003 C 282.8 385.3 285.09999999999997 385.90000000000003 286.4 386.90000000000003 C 287.7 387.90000000000003 287.4 388.6 288.09999999999997 388.6 C 288.79999999999995 388.6 294.09999999999997 388.70000000000005 294.4 388.5 C 294.7 388.2 294.5 387.7 294 387.5 C 293.5 387.3 292 387.3 291.1 386.4 C 290.20000000000005 385.4 289.40000000000003 384.5 289.40000000000003 384.5 C 290.3 383.9 290.3 381.3 291.3 379.6 C 292.2 377.90000000000003 294.3 373.1 296.40000000000003 370.8 C 298.50000000000006 368.40000000000003 298.40000000000003 368.3 299.1 366.2 C 299.8 364.09999999999997 299.90000000000003 356.7 299.90000000000003 356.7 L 294.90000000000003 352.2 C 294.6 352.3 294.40000000000003 352.3 294.20000000000005 352.3 C 294.1 352.3 294 352.3 293.8 352.3 L 293.8 352.3 Z" style="fill-rule: evenodd; clip-rule: evenodd; fill: rgb(51, 51, 51); opacity: 1; fill-opacity: 1;" transform="matrix(1, 0, 0, 1, -1.5154912471771258, -0.0000014963380010613037)"/><path class="st7" d="M 284.1 381.8 C 284.1 381.8 283.6 382.3 283.3 383.1 C 283 383.90000000000003 282.6 384.40000000000003 282.7 384.90000000000003 C 282.8 385.3 285.09999999999997 385.90000000000003 286.4 386.90000000000003 C 287.7 387.90000000000003 287.4 388.6 288.09999999999997 388.6 C 288.79999999999995 388.6 294.09999999999997 388.70000000000005 294.4 388.5 C 294.7 388.2 294.5 387.7 294 387.5 C 293.5 387.3 292 387.3 291.1 386.4 C 290.20000000000005 385.4 289.40000000000003 384.5 289.40000000000003 384.5 C 289.40000000000003 384.5 287.4 385.4 284.1 381.8 L 284.1 381.8 Z" style="fill-rule: evenodd; clip-rule: evenodd; fill: rgb(51, 51, 51); opacity: 1; fill-opacity: 1;" transform="matrix(1, 0, 0, 1, -1.5154912471771258, -0.0000014963380010613037)"/><path class="st8" d="M 305.9 350.3 C 305.9 350.3 307.59999999999997 355 307.59999999999997 357.5 C 307.59999999999997 360 308.79999999999995 363.6 309.49999999999994 364.9 C 310.19999999999993 366.2 309.79999999999995 368.7 309.69999999999993 370.29999999999995 C 309.5999999999999 371.9 311.5999999999999 378.19999999999993 312.79999999999995 380.69999999999993 C 313.99999999999994 383.0999999999999 314.9 383.5999999999999 314.9 383.5999999999999 C 314.9 383.5999999999999 314.79999999999995 385.4999999999999 313.2 386.2999999999999 C 311.59999999999997 386.9999999999999 309.7 386.8999999999999 309.7 386.8999999999999 C 309.7 386.8999999999999 307.3 382.2999999999999 306.3 380.0999999999999 C 305.3 377.7999999999999 303 373.9999999999999 303.6 371.19999999999993 C 304.1 368.3999999999999 303 367.5999999999999 302.3 365.69999999999993 C 301.6 363.79999999999995 297.6 359.3999999999999 296.90000000000003 357.8999999999999 C 296.3 356.3999999999999 294.1 355.19999999999993 293.70000000000005 352.3999999999999 L 293.70000000000005 352.3999999999999 C 293.90000000000003 352.3999999999999 294.1 352.3999999999999 294.30000000000007 352.3999999999999 C 296.00000000000006 352.2999999999999 298.70000000000005 350.7999999999999 300.20000000000005 349.3999999999999 C 301.7 348 305.9 350.3 305.9 350.3 L 305.9 350.3 Z" style="fill-rule: evenodd; clip-rule: evenodd; fill: rgb(51, 51, 51); opacity: 1; fill-opacity: 1;" transform="matrix(1, 0, 0, 1, -1.5154912471771258, -0.0000014963380010613037)"/><path class="st7" d="M 309.7 386.8 C 309.7 386.8 309.7 387.5 309.8 387.8 C 309.90000000000003 388.1 310 388.5 310 388.5 C 310 388.5 313.4 388.6 314.2 388.4 C 315 388.2 316 388 317.2 388.09999999999997 C 318.4 388.19999999999993 321.2 387.2 321.8 386.29999999999995 C 322.40000000000003 385.49999999999994 320.5 385.49999999999994 319.1 385.4 C 317.8 385.4 316.20000000000005 384.2 314.8 383.5 C 314.8 383.5 314.7 385.4 313.1 386.2 C 311.6 387 309.7 386.8 309.7 386.8 L 309.7 386.8 Z" style="fill-rule: evenodd; clip-rule: evenodd; fill: rgb(51, 51, 51); opacity: 1; fill-opacity: 1;" transform="matrix(1, 0, 0, 1, -1.5154912471771258, -0.0000014963380010613037)"/><path style="fill: rgb(51, 51, 51); fill-opacity: 1; stroke: rgb(0, 0, 0); stroke-opacity: 1; stroke-width: 0; paint-order: fill;" d="M 319.4938049316406 323.1568603515625"/></g></g></svg>